<svg xmlns="http://www.w3.org/2000/svg" viewBox="0 0 1080 1080">
  <defs>
    <style>.cls-1{fill:#e5e8f6;}.cls-2{fill:#e3003a;}</style>
  </defs>
  <title>simbolo_isket_redondo_negativo</title>
  <g id="Camada_2" data-name="Camada 2">
    <g id="Camada_1-2" data-name="Camada 1">
      <path
        class="cls-1"
        d="M588.62,377.16H462.45a12.09,12.09,0,0,0-12.09,12.09V455.2a12.06,12.06,0,0,0,12.07,12.07h44.23a3.7,3.7,0,0,1,3.7,3.7V849.1a11.42,11.42,0,0,0,11.42,11.43h67.51a11.19,11.19,0,0,0,11.18-11.18V389A11.86,11.86,0,0,0,588.62,377.16Z"
      />
      <path
        class="cls-2"
        d="M582.72,212.62q-15.91-15.93-42.25-15.89c-17.56,0-31.85,5.27-42.73,15.89S481.39,237,481.39,253.94s5.47,30.77,16.35,41.32,25.17,15.89,42.73,15.89,31.64-5.28,42.25-15.89,15.89-24.37,15.89-41.32S593.27,223.23,582.72,212.62Z"
      />
      <path
        class="cls-1"
        d="M540,82.89c122.1,0,236.89,47.55,323.22,133.89S997.11,417.9,997.11,540,949.56,776.89,863.22,863.22,662.1,997.11,540,997.11,303.11,949.56,216.78,863.22,82.89,662.1,82.89,540s47.55-236.89,133.89-323.22S417.9,82.89,540,82.89M540,0C241.77,0,0,241.77,0,540s241.77,540,540,540,540-241.77,540-540S838.23,0,540,0Z"
      />
    </g>
  </g>
</svg> 