<svg
  xmlns="http://www.w3.org/2000/svg"
  viewBox="0 0 1080 1080"
>
  <defs>
    <style>
      .cls-1{fill:#262353;}
      .cls-2{fill:#e3003a;}
      .cls-3{fill:#262552;}
    </style>
  </defs>
  <title>simbolo_isket</title>
  <g id="Camada_2" data-name="Camada 2">
    <g id="Camada_1-2" data-name="Camada 1">
      <path
        class="cls-1"
        d="M590.76,370.48H459a12.62,12.62,0,0,0-12.62,12.62V452a12.6,12.6,0,0,0,12.6,12.6h46.17a3.87,3.87,0,0,1,3.87,3.87V863.17A11.93,11.93,0,0,0,521,875.1h70.48a11.68,11.68,0,0,0,11.67-11.67V382.85A12.37,12.37,0,0,0,590.76,370.48Z"
      />
      <path
        class="cls-2"
        d="M584.6,198.7Q568,182.08,540.49,182.11c-18.33,0-33.24,5.51-44.6,16.59s-17.08,25.44-17.08,43.14S484.53,274,495.89,285s26.27,16.58,44.6,16.58,33-5.5,44.11-16.58,16.59-25.44,16.59-43.14S595.61,209.78,584.6,198.7Z"
      />
      <path
        class="cls-3"
        d="M859.53,1080H220.47C98.9,1080,0,981.1,0,859.53V220.47C0,98.9,98.9,0,220.47,0H859.53C981.1,0,1080,98.9,1080,220.47V859.53C1080,981.1,981.1,1080,859.53,1080ZM220.47,86.54c-73.85,0-133.93,60.08-133.93,133.93V859.53c0,73.85,60.08,133.93,133.93,133.93H859.53c73.85,0,133.93-60.08,133.93-133.93V220.47c0-73.85-60.08-133.93-133.93-133.93Z"
      />
    </g>
  </g>
</svg>